<svg width="23" height="26" viewBox="0 0 23 26" fill="none" xmlns="http://www.w3.org/2000/svg">
<path d="M4.12035 19.6657C4.12035 20.3447 4.67457 20.8989 5.35646 20.8989H6.76956V24.3925C6.76956 25.2775 7.48047 26 8.35387 26C9.23017 26 9.93817 25.2804 9.93817 24.3925V20.896H12.4046V24.3896C12.4046 25.2746 13.1155 25.9971 13.9889 25.9971C14.8652 25.9971 15.5732 25.2775 15.5732 24.3896V20.896H16.9863C17.6682 20.896 18.2224 20.3418 18.2224 19.6628V8.19544H4.12035V19.6657ZM14.4822 2.25284L15.785 0.366766C15.8605 0.256503 15.843 0.108518 15.7415 0.0359769C15.6399 -0.0336629 15.4948 0.00115721 15.4194 0.11142L14.0672 2.07294C13.1764 1.72184 12.1841 1.52743 11.1424 1.52743C10.1007 1.52743 9.1083 1.72184 8.21749 2.07294L6.86532 0.114322C6.78988 0.00405882 6.64479 -0.0336627 6.54324 0.0388787C6.44168 0.108518 6.42427 0.253601 6.49971 0.369667L7.80255 2.25574C5.73077 3.21909 4.27994 5.04424 4.09424 7.17695H18.1963C18.0048 5.04133 16.5511 3.21619 14.4822 2.25284ZM8.16526 5.22704C8.01088 5.22704 7.85997 5.18126 7.73161 5.09549C7.60325 5.00973 7.50321 4.88782 7.44413 4.7452C7.38505 4.60257 7.3696 4.44563 7.39971 4.29422C7.42983 4.14281 7.50417 4.00373 7.61333 3.89457C7.72249 3.7854 7.86157 3.71107 8.01299 3.68095C8.1644 3.65083 8.32134 3.66629 8.46396 3.72536C8.60659 3.78444 8.72849 3.88449 8.81426 4.01285C8.90003 4.14121 8.94581 4.29212 8.94581 4.44649C8.94527 4.65334 8.86286 4.85157 8.7166 4.99783C8.57033 5.1441 8.37211 5.2265 8.16526 5.22704ZM14.2123 5.22704C14.0579 5.22704 13.907 5.18126 13.7787 5.09549C13.6503 5.00973 13.5503 4.88782 13.4912 4.7452C13.4321 4.60257 13.4166 4.44563 13.4468 4.29422C13.4769 4.14281 13.5512 4.00373 13.6604 3.89457C13.7695 3.7854 13.9086 3.71107 14.06 3.68095C14.2114 3.65083 14.3684 3.66629 14.511 3.72536C14.6536 3.78444 14.7755 3.88449 14.8613 4.01285C14.9471 4.14121 14.9929 4.29212 14.9929 4.44649C14.9923 4.65334 14.9099 4.85157 14.7637 4.99783C14.6174 5.1441 14.4192 5.2265 14.2123 5.22704ZM20.6946 8.14901C19.8183 8.14901 19.1103 8.86862 19.1103 9.75653V16.0357C19.1103 16.9207 19.8212 17.6432 20.6946 17.6432C21.5709 17.6432 22.2789 16.9236 22.2789 16.0357V9.75362C22.2818 8.86572 21.5738 8.14901 20.6946 8.14901ZM1.5843 8.14901C0.708004 8.14901 0 8.86862 0 9.75653V16.0357C0 16.9207 0.710906 17.6432 1.5843 17.6432C2.4606 17.6432 3.16861 16.9236 3.16861 16.0357V9.75362C3.16861 8.86572 2.4577 8.14901 1.5843 8.14901Z" fill="#1C2B38"/>
</svg>
