<svg width="50" height="50" viewBox="0 0 50 50" fill="none" xmlns="http://www.w3.org/2000/svg">
<circle cx="25" cy="25" r="25" fill="white" fill-opacity="0.2"/>
<circle cx="25" cy="25" r="24.5" stroke="white" stroke-opacity="0.2"/>
<path d="M33.5645 20.2789C33.2852 19.6372 32.8825 19.0558 32.379 18.5671C31.875 18.0769 31.2808 17.6874 30.6288 17.4197C29.9526 17.141 29.2274 16.9983 28.4952 17C27.468 17 26.4658 17.2791 25.5948 17.8063C25.3865 17.9324 25.1886 18.0709 25.001 18.2218C24.8135 18.0709 24.6156 17.9324 24.4072 17.8063C23.5363 17.2791 22.5341 17 21.5069 17C20.7672 17 20.0505 17.1406 19.3733 17.4197C18.7191 17.6885 18.1294 18.0751 17.6231 18.5671C17.1189 19.0552 16.7161 19.6368 16.4376 20.2789C16.1479 20.9466 16 21.6558 16 22.3855C16 23.074 16.1417 23.7914 16.423 24.5211C16.6584 25.131 16.9959 25.7636 17.4272 26.4025C18.1107 27.4134 19.0503 28.4678 20.2171 29.5366C22.1507 31.3084 24.0655 32.5323 24.1468 32.5819L24.6406 32.8961C24.8593 33.0346 25.1406 33.0346 25.3594 32.8961L25.8532 32.5819C25.9345 32.5302 27.8472 31.3084 29.7828 29.5366C30.9496 28.4678 31.8893 27.4134 32.5727 26.4025C33.004 25.7636 33.3437 25.131 33.577 24.5211C33.8583 23.7914 34 23.074 34 22.3855C34.0021 21.6558 33.8541 20.9466 33.5645 20.2789Z" fill="white"/>
</svg>
